<svg width="22" height="26" viewBox="0 0 22 26" fill="none" xmlns="http://www.w3.org/2000/svg">
<path d="M21.1187 12.3352C20.7739 11.9905 20.3555 11.8183 19.8629 11.8183H19.2723V8.27263C19.2723 6.00752 18.4601 4.06262 16.835 2.43761C15.21 0.812536 13.2653 0 10.9999 0C8.73452 0 6.78942 0.812536 5.16461 2.43754C3.53954 4.06262 2.72726 6.00745 2.72726 8.27263V11.8183H2.13644C1.64418 11.8183 1.22553 11.9905 0.880797 12.3352C0.536069 12.6797 0.36377 13.0984 0.36377 13.5911V24.2273C0.36377 24.7196 0.536134 25.1384 0.880797 25.4832C1.22553 25.8276 1.64418 26 2.13644 26H19.8633C20.356 26 20.7743 25.8278 21.1192 25.4832C21.4636 25.1384 21.6362 24.7196 21.6362 24.2273V13.5909C21.6365 13.0986 21.4636 12.68 21.1187 12.3352ZM15.7271 11.8183H6.27272V8.27263C6.27272 6.96778 6.73445 5.85359 7.65771 4.93045C8.5811 4.00719 9.6951 3.54565 11.0001 3.54565C12.3052 3.54565 13.4189 4.00712 14.3424 4.93045C15.2654 5.85352 15.7271 6.96778 15.7271 8.27263V11.8183Z" fill="white"/>
</svg>
