<svg width="624" height="203" viewBox="0 0 624 203" fill="none" xmlns="http://www.w3.org/2000/svg">
<path fill-rule="evenodd" clip-rule="evenodd" d="M192.8 129.1H180.8C177.3 129.1 174.5 126.3 174.5 122.8V46.6H150.7C138.5 46.6 128.6 56.5 128.6 68.7V134.6C128.6 146.8 138.5 156.7 150.7 156.7H238.7V0.700012H192.8V129.1ZM88.2 46.6H1.80001V74.1H58.1C61.6 74.1 64.4 76.9 64.4 80.4V129.1H52.4C48.9 129.1 46.1 126.3 46.1 122.8V87.8H22.3C10.1 87.8 0.200012 97.7 0.200012 109.9V134.5C0.200012 146.7 10.1 156.6 22.3 156.6H110.3V68.6C110.2 56.5 100.4 46.6 88.2 46.6ZM309.2 129.1H321.2V46.6H367.1V180.5C367.1 192.7 357.2 202.6 345 202.6H258.6V170.5H321.2V156.7H279.1C266.9 156.7 257 146.8 257 134.6V46.6H302.9V122.8C302.9 126.3 305.7 129.1 309.2 129.1ZM473.3 46.6H385.3V134.6C385.3 146.8 395.2 156.7 407.4 156.7H493.8V133L495.4 68.8C495.4 56.5 485.5 46.6 473.3 46.6ZM449.5 80.5V129.2H437.5C434 129.2 431.2 126.4 431.2 122.9V74.2H443.2C446.7 74.2 449.5 77 449.5 80.5ZM623.8 156.7H535.8C523.6 156.7 513.7 146.8 513.7 134.6V46.6H559.6V122.8C559.6 126.3 562.4 129.1 565.9 129.1H577.9V46.6H623.8V156.7Z" fill="#0ABF53"/>
</svg>
