<svg width="172" height="56" viewBox="0 0 172 56" fill="none" xmlns="http://www.w3.org/2000/svg">
<path fill-rule="evenodd" clip-rule="evenodd" d="M53.1224 35.415H49.8126C48.8473 35.415 48.075 34.6427 48.075 33.6774V12.6601H41.5105C38.1455 12.6601 35.4149 15.3907 35.4149 18.7556V36.932C35.4149 40.297 38.1455 43.0276 41.5105 43.0276H65.7825V0H53.1224V35.415ZM24.2719 12.66H0.441187V20.245H15.9697C16.9351 20.245 17.7074 21.0173 17.7074 21.9827V35.415H14.3976C13.4322 35.415 12.6599 34.6427 12.6599 33.6774V24.0237H6.09546C2.73048 24.0237 -0.00012207 26.7543 -0.00012207 30.1193V36.9044C-0.00012207 40.2694 2.73048 43 6.09546 43H30.3674V18.728C30.3399 15.3906 27.6368 12.66 24.2719 12.66ZM85.2277 35.415H88.5375V12.66H101.198V49.5921C101.198 52.9571 98.4669 55.6877 95.102 55.6877H71.2713V46.8339H88.5375V43.0276H76.9256C73.5606 43.0276 70.83 40.297 70.83 36.932V12.66H83.49V33.6774C83.49 34.6427 84.2623 35.415 85.2277 35.415ZM130.489 12.66H106.217V36.932C106.217 40.297 108.948 43.0276 112.313 43.0276H136.144V36.4907L136.585 18.7832C136.585 15.3906 133.854 12.66 130.489 12.66ZM123.925 22.0103V35.4426H120.615C119.65 35.4426 118.877 34.6703 118.877 33.7049V20.2726H122.187C123.153 20.2726 123.925 21.0449 123.925 22.0103ZM172 43.0276H147.728C144.363 43.0276 141.632 40.297 141.632 36.932V12.66H154.292V33.6774C154.292 34.6427 155.065 35.415 156.03 35.415H159.34V12.66H172V43.0276Z" fill="white"/>
</svg>
